<?xml version="1.0" encoding="UTF-8" standalone="no"?>
<!DOCTYPE svg PUBLIC "-//W3C//DTD SVG 1.1//EN" "http://www.w3.org/Graphics/SVG/1.1/DTD/svg11.dtd">
<svg xmlns="http://www.w3.org/2000/svg" xmlns:xlink="http://www.w3.org/1999/xlink" version="1.1" width="40" height="40"
     viewBox="0 0 1200 1200">
    <g enable-background="new">
        <path d="M 0 0 L 1200 0 L 1200 1200 L 0 1200 Z " fill="#f9f2f7"/>
        <path transform="matrix(1192,0,0,1192,4,4)" d="M 0 0 L 1 0 L 1 1 L 0 1 Z " fill="#f7139f"/>
        <path transform="matrix(1,0,0,1,173.67104,470.31996)"
              d="M 845.5539 7.10404 L 845.5539 252.80585 L 7.10404 252.80585 L 7.10404 7.10404 L 845.5539 7.10404 M 852.65798 0 L 845.5539 0 L 7.10404 0 L 0 0 L 0 7.10404 L 0 252.80585 L 0 259.90989 L 7.10404 259.90989 L 845.7989 259.90989 L 852.9029 259.90989 L 852.9029 252.80585 L 852.9029 7.10404 L 852.9029 0 L 852.65798 0 Z "/>
        <symbol id="font_0_1">
            <path d="M .48000003 .063 C .43533335 .021 .38366667 0 .32500003 0 C .28100003 0 .23933333 .009666667 .2 .029000001 C .16066666 .049 .126 .075666669 .096 .109000008 C .06666667 .14233335 .043333334 .18100001 .026 .22500001 C .008666667 .26966668 0 .3166667 0 .36600004 C 0 .416 .008666667 .46233336 .026 .505 C .044 .54833337 .068333338 .58566668 .09900001 .61700007 C .13033335 .649 .16700001 .674 .209 .69200006 C .25100003 .71066668 .296 .72 .344 .72 C .37400005 .72 .4026667 .7163334 .43 .70900008 C .45733334 .7023334 .4826667 .692 .50600007 .67800006 C .52933338 .6646667 .55 .6483334 .568 .629 C .58666667 .6103334 .602 .589 .614 .565 L .469 .45400004 C .45700003 .48200003 .4386667 .5043333 .414 .521 C .39000003 .53833338 .36433337 .54700008 .337 .54700008 C .317 .54700008 .29833336 .54233339 .28100003 .533 C .26433335 .5236667 .24966669 .51066669 .23700002 .49400003 C .22500003 .47733335 .21533335 .45733334 .208 .43400003 C .20133335 .41133333 .19800002 .38633336 .19800002 .359 C .19800002 .331 .20133335 .3056667 .208 .28300003 C .21533335 .26033334 .22533334 .24066668 .238 .224 C .25066666 .208 .2656667 .19533335 .28300003 .186 C .301 .17733334 .32066668 .17300003 .342 .17300001 C .36600004 .17300003 .38900004 .179 .411 .191 C .4336667 .20300001 .4546667 .22033334 .474 .243 L .349 .243 L .349 .38300003 L .64100006 .38300003 L .64100006 .0050000005 L .48000003 .0050000005 L .48000003 .063 Z "/>
        </symbol>
        <symbol id="font_0_2">
            <path d="M 0 0 L 0 .526 L .19 .526 L .19 0 L 0 0 M 0 .57000008 L 0 .73 L .19 .73 L .19 .57000008 L 0 .57000008 Z "/>
        </symbol>
        <symbol id="font_0_3">
            <path d="M .39800004 .040000004 C .37133337 .02866667 .34266673 .019000002 .31200005 .011000001 C .28200004 .003666667 .25233338 0 .22300002 0 C .20166667 0 .18133335 .002666667 .162 .008000001 C .14266669 .013333335 .12566668 .022 .11100001 .034 C .097 .046000005 .085666667 .061666669 .077 .081 C .069000009 .10033333 .065000008 .124333348 .065000008 .15300001 L .065000008 .39400003 L 0 .39400003 L 0 .537 L .065000008 .537 L .065000008 .702 L .25500003 .702 L .25500003 .537 L .358 .537 L .358 .39400003 L .25500003 .39400003 L .25500003 .22000002 C .25500003 .20266669 .2586667 .19033335 .26600004 .18300002 C .27333335 .17633336 .28333334 .17300003 .29600004 .17300001 C .30533339 .17300003 .316 .17433334 .328 .17700002 C .34 .18033333 .352 .18466668 .36400003 .19000001 L .39800004 .040000004 Z "/>
        </symbol>
        <symbol id="font_0_4">
            <path d="M 0 0 L 0 .71000006 L .19500001 .71000006 L .19500001 .17 L .517 .17 L .517 0 L 0 0 Z "/>
        </symbol>
        <symbol id="font_0_5">
            <path d="M .52900007 0 L .33900003 0 L .33900003 .296 C .33900003 .322 .33300004 .34066669 .321 .35200004 C .30966667 .364 .29633335 .37 .28100003 .37 C .26500003 .37 .24800001 .363 .23000002 .349 C .21200001 .335 .19866668 .317 .19 .29500003 L .19 0 L 0 0 L 0 .526 L .171 .526 L .171 .448 C .18966668 .4766667 .21566667 .49833337 .24900002 .513 C .28300003 .52833339 .323 .536 .36900003 .536 C .405 .536 .43333338 .52933338 .45400004 .51600006 C .47533337 .50333335 .49133338 .48733334 .50200006 .46800003 C .5133334 .4486667 .5206667 .428 .52400007 .40600003 C .5273334 .38400004 .52900007 .364 .52900007 .34600003 L .52900007 0 Z "/>
        </symbol>
        <symbol id="font_0_6">
            <path d="M .347 0 L .22800002 .192 L .19 .15 L .19 0 L 0 0 L 0 .73 L .19 .73 L .19 .33100004 L .33 .526 L .53000006 .526 L .349 .296 L .54800006 0 L .347 0 Z "/>
        </symbol>
        <use xlink:href="#font_0_1" transform="matrix(215.55556,0,0,-215.55556,229.7835,678.02908)"/>
        <use xlink:href="#font_0_2" transform="matrix(215.55556,0,0,-215.55556,385.84577,676.9513)"/>
        <use xlink:href="#font_0_3" transform="matrix(215.55556,0,0,-215.55556,441.2435,679.3224)"/>
        <use xlink:href="#font_0_4" transform="matrix(215.55556,0,0,-215.55556,540.61459,676.9513)"/>
        <use xlink:href="#font_0_2" transform="matrix(215.55556,0,0,-215.55556,664.5591,676.9513)"/>
        <use xlink:href="#font_0_5" transform="matrix(215.55556,0,0,-215.55556,726.208,676.9513)"/>
        <use xlink:href="#font_0_6" transform="matrix(215.55556,0,0,-215.55556,860.068,676.9513)"/>
    </g>
</svg>
