<?xml version="1.0" encoding="UTF-8"?>
<svg xmlns="http://www.w3.org/2000/svg" xmlns:xlink="http://www.w3.org/1999/xlink" width="16px" height="16px" viewBox="0 0 16 16" version="1.1">
<g id="surface1">
<path style=" stroke:none;fill-rule:nonzero;fill:rgb(100%,66.666667%,66.666667%);fill-opacity:1;" d="M 1.230469 0 L 11.078125 0 C 11.757812 0 12.308594 0.550781 12.308594 1.230469 L 12.308594 11.078125 C 12.308594 11.757812 11.757812 12.308594 11.078125 12.308594 L 1.230469 12.308594 C 0.550781 12.308594 0 11.757812 0 11.078125 L 0 1.230469 C 0 0.550781 0.550781 0 1.230469 0 Z M 1.230469 0 "/>
<path style=" stroke:none;fill-rule:nonzero;fill:rgb(66.666667%,100%,66.666667%);fill-opacity:1;" d="M 4.921875 3.691406 L 14.769531 3.691406 C 15.449219 3.691406 16 4.242188 16 4.921875 L 16 14.769531 C 16 15.449219 15.449219 16 14.769531 16 L 4.921875 16 C 4.242188 16 3.691406 15.449219 3.691406 14.769531 L 3.691406 4.921875 C 3.691406 4.242188 4.242188 3.691406 4.921875 3.691406 Z M 4.921875 3.691406 "/>
<path style=" stroke:none;fill-rule:nonzero;fill:rgb(100%,0%,0%);fill-opacity:1;" d="M 5.539062 6.769531 L 9.230469 6.769531 L 9.230469 8 L 5.539062 8 Z M 5.539062 6.769531 "/>
<path style=" stroke:none;fill-rule:nonzero;fill:rgb(100%,0%,0%);fill-opacity:1;" d="M 10.460938 6.769531 L 14.152344 6.769531 L 14.152344 8 L 10.460938 8 Z M 10.460938 6.769531 "/>
<path style=" stroke:none;fill-rule:nonzero;fill:rgb(0%,50.196078%,0%);fill-opacity:1;" d="M 5.539062 11.078125 L 6.769531 11.078125 L 6.769531 9.847656 L 8 9.847656 L 8 11.078125 L 9.230469 11.078125 L 9.230469 12.308594 L 8 12.308594 L 8 13.539062 L 6.769531 13.539062 L 6.769531 12.308594 L 5.539062 12.308594 Z M 5.539062 11.078125 "/>
<path style=" stroke:none;fill-rule:nonzero;fill:rgb(0%,50.196078%,0%);fill-opacity:1;" d="M 10.460938 11.078125 L 11.691406 11.078125 L 11.691406 9.847656 L 12.921875 9.847656 L 12.921875 11.078125 L 14.152344 11.078125 L 14.152344 12.308594 L 12.921875 12.308594 L 12.921875 13.539062 L 11.691406 13.539062 L 11.691406 12.308594 L 10.460938 12.308594 Z M 10.460938 11.078125 "/>
</g>
</svg>
