<svg height="100%" stroke-miterlimit="10"
     style="fill-rule:nonzero;clip-rule:evenodd;stroke-linecap:round;stroke-linejoin:round;" version="1.1"
     viewBox="0 0 45.36 45.36" width="100%" xml:space="preserve" xmlns="http://www.w3.org/2000/svg"
     xmlns:xlink="http://www.w3.org/1999/xlink">
<path d="M0 0L45.36 0L45.36 45.36L0 45.36L0 0Z" fill="none" fill-rule="evenodd" opacity="1" stroke="none"/>
    <path d="M22.68 45.36C10.1542 45.36 0 35.2059 0 22.68C0 10.1542 10.1542 0 22.68 0C35.2059 0 45.36 10.1542 45.36 22.68C45.36 35.2059 35.2059 45.36 22.68 45.36ZM34.16 20.1604L21.2801 20.1607C20.6617 20.1607 20.1603 20.662 20.1601 21.2804L20.1587 24.0803C20.1586 24.6988 20.6599 25.2004 21.2785 25.2006L21.2787 25.2006L29.12 25.2002C29.7386 25.2002 30.2401 25.7016 30.2401 26.3202L30.2401 26.3202L30.2401 26.6002L30.2401 26.8802C30.2401 28.7358 28.7358 30.2401 26.8801 30.2401L16.2393 30.2401C15.6208 30.2401 15.1194 29.7389 15.1194 29.1203L15.119 18.4805C15.1189 16.6249 16.6232 15.1205 18.4789 15.1205L18.479 15.1205L34.1569 15.1198C34.7752 15.1198 35.2765 14.6188 35.2768 14.0006L35.2799 11.2007C35.2804 10.5821 34.7792 10.0804 34.1606 10.08C34.1603 10.08 34.1603 10.08 34.16 10.08L18.4801 10.0807C13.841 10.0807 10.0802 13.8415 10.0801 18.4807L10.08 34.16C10.08 34.7786 10.5814 35.2799 11.2 35.2799L27.7202 35.2799C31.8955 35.2799 35.2799 31.8955 35.2799 27.7202L35.2799 21.2804C35.2799 20.6618 34.7786 20.1604 34.16 20.1604Z"
          fill="#c71d23" fill-rule="evenodd" opacity="1" stroke="none"/>
</svg>
